<svg xmlns="http://www.w3.org/2000/svg" xmlns:xlink="http://www.w3.org/1999/xlink" xmlns:lucid="lucid" width="1188.33" height="820"><g transform="translate(-138.98697916666663 -220)" lucid:page-tab-id="0_0"><path d="M0 0h1870.87v1322.83H0z" fill="#fff"/><path d="M259.75 559.75c0 10.9-8.84 19.75-19.75 19.75-10.9 0-19.75-8.84-19.75-19.75 0-10.9 8.84-19.75 19.75-19.75 10.9 0 19.75 8.84 19.75 19.75z" stroke="#5e5e5e" stroke-width="4" fill="#b2d6ef"/><path d="M240 579.5v49.3c0 3.3 1.44 8.27 3.2 11.07L280 698m-40-63.2L200 698m0-98.75h80" stroke="#5e5e5e" stroke-width="4" fill="none"/><path d="M200 546c0-3.3 2.7-6 6-6h68c3.3 0 6 2.7 6 6v168c0 3.3-2.7 6-6 6h-68c-3.3 0-6-2.7-6-6z" fill="none"/><use xlink:href="#a" transform="matrix(1,0,0,1,120,698) translate(39.98697916666664 17.7734375)"/><path d="M1239.75 569.75c0 10.9-8.84 19.75-19.75 19.75-10.9 0-19.75-8.84-19.75-19.75 0-10.9 8.84-19.75 19.75-19.75 10.9 0 19.75 8.84 19.75 19.75z" stroke="#5e5e5e" stroke-width="4" fill="#b2d6ef"/><path d="M1220 589.5v49.3c0 3.3 1.44 8.27 3.2 11.07L1260 708m-40-63.2l-40 63.2m0-98.75h80" stroke="#5e5e5e" stroke-width="4" fill="none"/><path d="M1180 556c0-3.3 2.7-6 6-6h68c3.3 0 6 2.7 6 6v168c0 3.3-2.7 6-6 6h-68c-3.3 0-6-2.7-6-6z" fill="none"/><use xlink:href="#b" transform="matrix(1,0,0,1,1100,708) translate(33.31922743055553 17.7734375)"/><path d="M820 480c0 33.14-35.82 60-80 60s-80-26.86-80-60 35.82-60 80-60 80 26.86 80 60z" stroke="#5e5e5e" stroke-width="4" fill="#b2d6ef"/><use xlink:href="#c" transform="matrix(1,0,0,1,660,420) translate(37.505 63.15)"/><use xlink:href="#d" transform="matrix(1,0,0,1,660,420) translate(74.505 63.15)"/><use xlink:href="#e" transform="matrix(1,0,0,1,660,420) translate(89.505 63.15)"/><path d="M820 640c0 33.14-35.82 60-80 60s-80-26.86-80-60 35.82-60 80-60 80 26.86 80 60z" stroke="#5e5e5e" stroke-width="4" fill="#b2d6ef"/><use xlink:href="#f" transform="matrix(1,0,0,1,660,580) translate(18.104999999999997 51.9)"/><use xlink:href="#g" transform="matrix(1,0,0,1,660,580) translate(100.00500000000001 51.9)"/><use xlink:href="#e" transform="matrix(1,0,0,1,660,580) translate(63.505 73.5)"/><path d="M820 800c0 33.14-35.82 60-80 60s-80-26.86-80-60 35.82-60 80-60 80 26.86 80 60z" stroke="#5e5e5e" stroke-width="4" fill="#b2d6ef"/><use xlink:href="#h" transform="matrix(1,0,0,1,660,740) translate(24.458776041666653 57.33072916666667)"/><use xlink:href="#i" transform="matrix(1,0,0,1,660,740) translate(57.576614583333324 57.33072916666667)"/><use xlink:href="#j" transform="matrix(1,0,0,1,660,740) translate(86.25955729166665 57.33072916666667)"/><use xlink:href="#k" transform="matrix(1,0,0,1,660,740) translate(119.64822916666668 57.33072916666667)"/><use xlink:href="#i" transform="matrix(1,0,0,1,660,740) translate(49.256953124999995 77.64322916666667)"/><use xlink:href="#l" transform="matrix(1,0,0,1,660,740) translate(77.93989583333334 77.64322916666667)"/><path d="M244.12 629.42l417.74-125.97M244.17 629.4l-4.84 1.47" stroke="#5e5e5e" stroke-width="4" fill="none"/><path d="M662.86 501.1l1.54 3 .35.56-2.36.72-1.17-3.83 1.6-.5z" fill="#5e5e5e"/><path d="M244.06 630.76l412.1 168.48M244.1 630.78l-4.67-1.92" stroke="#5e5e5e" stroke-width="4" fill="none"/><path d="M658.07 797.87l-.07 2.1v.45l.07 1.77-2.73-1.13 1.52-3.7z" fill="#5e5e5e"/><path d="M244.2 630l413.16-1.26M244.26 630h-5.05" stroke="#5e5e5e" stroke-width="4" fill="none"/><path d="M659.5 628.15l-.58 2.58h-1.6l-.02-4h2.6z" fill="#5e5e5e"/><path d="M1216.3 639.25l-392.45-158.5M1216.26 639.23l4.68 1.9" stroke="#5e5e5e" stroke-width="4" fill="none"/><path d="M824.65 478.9l-1.5 3.72-1.22-.5.07-2.1v-.44l-.07-1.77z" fill="#5e5e5e"/><path d="M1216.3 640.75l-392.45 158.5M1216.26 640.77l4.68-1.9" stroke="#5e5e5e" stroke-width="4" fill="none"/><path d="M824.65 801.1l-2.72 1.08.07-2.15v-.45l-.07-1.7 1.22-.5z" fill="#5e5e5e"/><path d="M820 300c0 33.14-35.82 60-80 60s-80-26.86-80-60 35.82-60 80-60 80 26.86 80 60z" stroke="#5e5e5e" stroke-width="4" fill="#b2d6ef"/><use xlink:href="#m" transform="matrix(1,0,0,1,660,240) translate(11.104999999999999 63.15)"/><use xlink:href="#n" transform="matrix(1,0,0,1,660,240) translate(16.104999999999997 63.15)"/><use xlink:href="#o" transform="matrix(1,0,0,1,660,240) translate(109.055 63.15)"/><path d="M243.77 628.76l412.66-327.52M243.8 628.72l-3.94 3.14" stroke="#5e5e5e" stroke-width="4" fill="none"/><path d="M658 299.97v.45l.08 2.07-.44.34-2.5-3.13 2.94-2.32z" fill="#5e5e5e"/><path d="M1216.16 640H824M1216.1 640h5.06" stroke="#5e5e5e" stroke-width="4" fill="none"/><path d="M824.05 642h-2.1l.05-1.97v-.45l-.06-1.58h2.1z" fill="#5e5e5e"/><path d="M740 364v31.26" stroke="#5e5e5e" stroke-width="4" fill="none"/><path d="M739.97 362h.97l1.06-.05v2.1h-4v-2.1z" fill="#5e5e5e"/><path d="M740 411.53l-4.64-14.27h9.28z" stroke="#5e5e5e" stroke-width="4" fill="#5e5e5e"/><path d="M740 576v-11.26" stroke="#5e5e5e" stroke-width="4" fill="none"/><path d="M742 578.06l-1.97-.06h-.97l-1.06.05v-2.1h4z" fill="#5e5e5e"/><path d="M740 548.47l4.64 14.27h-9.28z" stroke="#5e5e5e" stroke-width="4" fill="#5e5e5e"/><path d="M820 960c0 33.14-35.82 60-80 60s-80-26.86-80-60 35.82-60 80-60 80 26.86 80 60z" stroke="#5e5e5e" stroke-width="4" fill="#b2d6ef"/><use xlink:href="#p" transform="matrix(1,0,0,1,660,900) translate(20.62999999999999 51.9)"/><use xlink:href="#q" transform="matrix(1,0,0,1,660,900) translate(74.58 51.9)"/><use xlink:href="#g" transform="matrix(1,0,0,1,660,900) translate(97.48 51.9)"/><use xlink:href="#e" transform="matrix(1,0,0,1,660,900) translate(63.505 73.5)"/><path d="M243.77 631.24l412.66 327.52M243.8 631.28l-3.94-3.14" stroke="#5e5e5e" stroke-width="4" fill="none"/><path d="M658.08 957.5l-.08 2.47v.45l.1 2.2-2.95-2.33 2.5-3.14z" fill="#5e5e5e"/><path d="M1216.6 641.26L823.56 958.74M1216.56 641.3l3.93-3.2" stroke="#5e5e5e" stroke-width="4" fill="none"/><path d="M824.85 960.27l-2.93 2.37.08-2.6v-.46l-.08-2.08.42-.34z" fill="#5e5e5e"/><path d="M740 736v-11.26" stroke="#5e5e5e" stroke-width="4" fill="none"/><path d="M742 738.06l-1.97-.06h-.97l-1.06.05v-2.1h4z" fill="#5e5e5e"/><path d="M740 708.47l4.64 14.27h-9.28z" stroke="#5e5e5e" stroke-width="4" fill="#5e5e5e"/><path d="M740 896v-11.26" stroke="#5e5e5e" stroke-width="4" fill="none"/><path d="M742 898.06l-1.97-.06h-.97l-1.06.05v-2.1h4z" fill="#5e5e5e"/><path d="M740 868.47l4.64 14.27h-9.28z" stroke="#5e5e5e" stroke-width="4" fill="#5e5e5e"/><defs><path fill="#5e5e5e" d="M775-193C708-75 621 20 439 20 226 20 106-93 106-306c0-251 170-341 417-346l223-4c4-143-12-264-148-264-103 0-141 58-150 153l-293-14c37-219 194-321 455-321 263 0 418 130 417 390v392c1 84 5 161 89 160 21 0 42-2 62-6v152c-57 15-108 27-180 26-145 0-202-73-217-205h-6zm-256 17c168 0 234-139 227-325-166 4-347-25-347 173 0 94 33 152 120 152" id="r"/><path fill="#5e5e5e" d="M802-909c-3-189-2-383-2-575h281v1248c-1 83 4 168 8 236H817c-9-50-14-117-15-176h-4C735-49 651 20 482 20 191 20 97-238 97-539c0-243 66-432 221-519 50-28 108-42 175-42 162 2 253 78 309 191zm-70 658c91-113 93-462 2-584-46-61-145-100-224-53-96 56-119 190-120 349 0 123 17 214 52 275 46 82 130 115 222 74 25-12 46-33 68-61" id="s"/><path fill="#5e5e5e" d="M934-1102c199 0 220 177 220 381V0H926c-2-260 10-533-4-785-4-72-14-138-83-138-34 0-61 27-81 81s-29 134-29 241V0H501c-2-260 9-533-5-785-4-72-13-138-82-138-46 0-65 47-80 93-21 67-30 155-30 248V0H75c-3-360 6-732-6-1082h209c6 50 3 123 8 175 36-100 83-195 216-195 135 0 166 79 196 196 42-105 93-196 236-196" id="t"/><path fill="#5e5e5e" d="M794-190h353V0H118v-190h395v-702H223v-190h571v892zM513-1277v-207h281v207H513" id="u"/><path fill="#5e5e5e" d="M768-1103c247 0 336 167 336 416V0H824v-619c-3-164-24-273-171-273-164 0-229 142-229 312V0H143c-4-359 9-736-8-1082h268c7 63 12 146 13 215h4c67-145 160-236 348-236" id="v"/><path fill="#5e5e5e" d="M89 20l821-1504h228L321 20H89" id="w"/><path fill="#5e5e5e" d="M622-916c-112 2-200 14-200 111 0 90 89 101 168 121 234 58 514 77 514 368C1104-4 751 54 434 5 267-21 161-112 121-270l247-37c24 111 113 145 252 141 114-3 226-12 226-124 0-101-103-113-192-134-225-54-490-76-490-351 0-247 201-328 458-328 245 0 413 88 457 292l-249 26c-16-98-92-133-208-131" id="x"/><path fill="#5e5e5e" d="M143 212c82 12 185 12 233-31 50-45 83-117 110-192L38-1082h297c100 284 211 557 291 861 72-305 176-578 270-861h294L742 57c-80 192-156 368-417 368-60 0-131-4-182-13V212" id="y"/><path fill="#5e5e5e" d="M711 13c-250 0-386-99-385-349l2-556H161v-190h181l88-282h176v282h385v190H606v530c-10 130 45 186 174 184 91-2 176-11 255-27v186C933-1 833 13 711 13" id="z"/><path fill="#5e5e5e" d="M1113-274C1038-96 884 20 626 20c-352 0-526-209-526-566 0-358 185-556 530-556 358 0 496 251 499 615H395c5 180 68 319 245 319 102 0 186-45 208-129zM857-663c-6-177-128-307-315-247-94 30-141 121-145 247h460" id="A"/><g id="a"><use transform="matrix(0.010850694444444444,0,0,0.010850694444444444,0,0)" xlink:href="#r"/><use transform="matrix(0.010850694444444444,0,0,0.010850694444444444,13.335503472222221,0)" xlink:href="#s"/><use transform="matrix(0.010850694444444444,0,0,0.010850694444444444,26.671006944444443,0)" xlink:href="#t"/><use transform="matrix(0.010850694444444444,0,0,0.010850694444444444,40.006510416666664,0)" xlink:href="#u"/><use transform="matrix(0.010850694444444444,0,0,0.010850694444444444,53.342013888888886,0)" xlink:href="#v"/><use transform="matrix(0.010850694444444444,0,0,0.010850694444444444,66.67751736111111,0)" xlink:href="#w"/><use transform="matrix(0.010850694444444444,0,0,0.010850694444444444,80.01302083333334,0)" xlink:href="#x"/><use transform="matrix(0.010850694444444444,0,0,0.010850694444444444,93.34852430555557,0)" xlink:href="#y"/><use transform="matrix(0.010850694444444444,0,0,0.010850694444444444,106.6840277777778,0)" xlink:href="#x"/><use transform="matrix(0.010850694444444444,0,0,0.010850694444444444,120.01953125000003,0)" xlink:href="#z"/><use transform="matrix(0.010850694444444444,0,0,0.010850694444444444,133.35503472222226,0)" xlink:href="#A"/><use transform="matrix(0.010850694444444444,0,0,0.010850694444444444,146.69053819444449,0)" xlink:href="#t"/></g><path fill="#5e5e5e" d="M1109-360C1066-122 902 20 624 20c-347 0-514-209-514-555 0-353 168-567 518-567 270 0 425 136 473 361l-283 14c-16-106-75-183-196-182-75 0-130 31-165 93s-52 152-52 270c0 249 74 374 221 374 120 0 188-82 201-201" id="B"/><path fill="#5e5e5e" d="M471 20c-247 0-336-169-336-415v-687h281v607c4 148 31 285 172 285 152 0 207-150 207-312v-580h281c4 359-9 736 8 1082H816c-7-63-11-146-12-215h-5C736-76 644 20 471 20" id="C"/><path fill="#5e5e5e" d="M616-1102c361 0 521 202 521 560 0 354-171 562-527 562C259 20 92-192 92-542c0-351 169-560 524-560zm-9 930c200-2 236-165 236-370 0-199-27-367-223-367-195 0-233 146-233 367 0 129 18 223 55 282s92 88 165 88" id="D"/><path fill="#5e5e5e" d="M875-1102c70 0 148 7 206 17v237c-110-17-267-37-359 15-123 69-192 207-192 395V0H250c-10-367 32-789-52-1082h271c19 69 36 149 46 228h4c52-151 151-250 356-248" id="E"/><g id="b"><use transform="matrix(0.010850694444444444,0,0,0.010850694444444444,0,0)" xlink:href="#B"/><use transform="matrix(0.010850694444444444,0,0,0.010850694444444444,13.335503472222221,0)" xlink:href="#C"/><use transform="matrix(0.010850694444444444,0,0,0.010850694444444444,26.671006944444443,0)" xlink:href="#x"/><use transform="matrix(0.010850694444444444,0,0,0.010850694444444444,40.006510416666664,0)" xlink:href="#z"/><use transform="matrix(0.010850694444444444,0,0,0.010850694444444444,53.342013888888886,0)" xlink:href="#D"/><use transform="matrix(0.010850694444444444,0,0,0.010850694444444444,66.67751736111111,0)" xlink:href="#t"/><use transform="matrix(0.010850694444444444,0,0,0.010850694444444444,80.01302083333334,0)" xlink:href="#A"/><use transform="matrix(0.010850694444444444,0,0,0.010850694444444444,93.34852430555557,0)" xlink:href="#E"/><use transform="matrix(0.010850694444444444,0,0,0.010850694444444444,106.6840277777778,0)" xlink:href="#w"/><use transform="matrix(0.010850694444444444,0,0,0.010850694444444444,120.01953125000003,0)" xlink:href="#C"/><use transform="matrix(0.010850694444444444,0,0,0.010850694444444444,133.35503472222226,0)" xlink:href="#x"/><use transform="matrix(0.010850694444444444,0,0,0.010850694444444444,146.69053819444449,0)" xlink:href="#A"/><use transform="matrix(0.010850694444444444,0,0,0.010850694444444444,160.0260416666667,0)" xlink:href="#E"/></g><path d="M205 0l-28-72H64L36 0H1l101-248h38L239 0h-34zm-38-99l-47-123c-12 45-31 82-46 123h93" id="F"/><path d="M85-194c31 0 48 13 60 33l-1-100h32l1 261h-30c-2-10 0-23-3-31C134-8 116 4 85 4 32 4 16-35 15-94c0-66 23-100 70-100zm9 24c-40 0-46 34-46 75 0 40 6 74 45 74 42 0 51-32 51-76 0-42-9-74-50-73" id="G"/><g id="c"><use transform="matrix(0.05,0,0,0.05,0,0)" xlink:href="#F"/><use transform="matrix(0.05,0,0,0.05,12,0)" xlink:href="#G"/><use transform="matrix(0.05,0,0,0.05,22,0)" xlink:href="#G"/></g><path d="M141-36C126-15 110 5 73 4 37 3 15-17 15-53c-1-64 63-63 125-63 3-35-9-54-41-54-24 1-41 7-42 31l-33-3c5-37 33-52 76-52 45 0 72 20 72 64v82c-1 20 7 32 28 27v20c-31 9-61-2-59-35zM48-53c0 20 12 33 32 33 41-3 63-29 60-74-43 2-92-5-92 41" id="H"/><use transform="matrix(0.05,0,0,0.05,0,0)" xlink:href="#H" id="d"/><path d="M59-47c-2 24 18 29 38 22v24C64 9 27 4 27-40v-127H5v-23h24l9-43h21v43h35v23H59v120" id="I"/><path d="M135-143c-3-34-86-38-87 0 15 53 115 12 119 90S17 21 10-45l28-5c4 36 97 45 98 0-10-56-113-15-118-90-4-57 82-63 122-42 12 7 21 19 24 35" id="J"/><path d="M143 0L79-87 56-68V0H24v-261h32v163l83-92h37l-77 82L181 0h-38" id="K"/><g id="e"><use transform="matrix(0.05,0,0,0.05,0,0)" xlink:href="#I"/><use transform="matrix(0.05,0,0,0.05,5,0)" xlink:href="#H"/><use transform="matrix(0.05,0,0,0.05,15,0)" xlink:href="#J"/><use transform="matrix(0.05,0,0,0.05,24,0)" xlink:href="#K"/></g><path d="M233-177c-1 41-23 64-60 70L243 0h-38l-65-103H63V0H30v-248c88 3 205-21 203 71zM63-129c60-2 137 13 137-47 0-61-80-42-137-45v92" id="L"/><path d="M100-194c63 0 86 42 84 106H49c0 40 14 67 53 68 26 1 43-12 49-29l28 8c-11 28-37 45-77 45C44 4 14-33 15-96c1-61 26-98 85-98zm52 81c6-60-76-77-97-28-3 7-6 17-6 28h103" id="M"/><path d="M210-169c-67 3-38 105-44 169h-31v-121c0-29-5-50-35-48C34-165 62-65 56 0H25l-1-190h30c1 10-1 24 2 32 10-44 99-50 107 0 11-21 27-35 58-36 85-2 47 119 55 194h-31v-121c0-29-5-49-35-48" id="N"/><path d="M100-194c62-1 85 37 85 99 1 63-27 99-86 99S16-35 15-95c0-66 28-99 85-99zM99-20c44 1 53-31 53-75 0-43-8-75-51-75s-53 32-53 75 10 74 51 75" id="O"/><path d="M108 0H70L1-190h34L89-25l56-165h34" id="P"/><g id="f"><use transform="matrix(0.05,0,0,0.05,0,0)" xlink:href="#L"/><use transform="matrix(0.05,0,0,0.05,12.950000000000001,0)" xlink:href="#M"/><use transform="matrix(0.05,0,0,0.05,22.950000000000003,0)" xlink:href="#N"/><use transform="matrix(0.05,0,0,0.05,37.900000000000006,0)" xlink:href="#O"/><use transform="matrix(0.05,0,0,0.05,47.900000000000006,0)" xlink:href="#P"/><use transform="matrix(0.05,0,0,0.05,56.900000000000006,0)" xlink:href="#M"/><use transform="matrix(0.05,0,0,0.05,66.9,0)" xlink:href="#G"/></g><path d="M24 0v-261h32V0H24" id="Q"/><path d="M24-231v-30h32v30H24zM24 0v-190h32V0H24" id="R"/><g id="g"><use transform="matrix(0.05,0,0,0.05,0,0)" xlink:href="#Q"/><use transform="matrix(0.05,0,0,0.05,3.95,0)" xlink:href="#R"/><use transform="matrix(0.05,0,0,0.05,7.9,0)" xlink:href="#J"/><use transform="matrix(0.05,0,0,0.05,16.9,0)" xlink:href="#I"/><use transform="matrix(0.05,0,0,0.05,21.9,0)" xlink:href="#M"/><use transform="matrix(0.05,0,0,0.05,31.899999999999995,0)" xlink:href="#G"/></g><path fill="#202124" d="M599-131c141 0 220-65 285-146l113 88C906-50 770 20 589 20 281 21 93-214 93-545c0-223 93-397 233-485 74-48 154-72 240-72 300 2 449 218 445 537v77H278c0 197 129 357 321 357zm227-509c-3-180-88-310-260-310-170 0-264 140-282 310h542" id="S"/><path fill="#202124" d="M520 20C244 20 95-247 95-550c0-298 151-550 427-552 127 0 227 43 301 130v-564h185V0H838l-9-116C755-25 652 20 520 20zm48-965c-210 0-288 177-288 416 0 218 87 392 286 392 117 0 203-53 257-158v-497c-55-102-140-153-255-153" id="T"/><path fill="#202124" d="M341 0H156v-1082h185V0zm-91-1264c-68 0-108-42-109-105 0-62 41-107 109-107s110 44 110 107-42 105-110 105" id="U"/><path fill="#202124" d="M456 20C285 20 205-92 206-268v-671H9v-143h197v-262h185v262h202v143H391v671c-9 125 92 149 207 118V0c-49 13-96 20-142 20" id="V"/><g id="h"><use transform="matrix(0.008463541666666668,0,0,0.008463541666666668,0,0)" xlink:href="#S"/><use transform="matrix(0.008463541666666668,0,0,0.008463541666666668,9.182942708333334,0)" xlink:href="#T"/><use transform="matrix(0.008463541666666668,0,0,0.008463541666666668,18.958333333333336,0)" xlink:href="#U"/><use transform="matrix(0.008463541666666668,0,0,0.008463541666666668,23.16471354166667,0)" xlink:href="#V"/></g><path fill="#202124" d="M589-945c-131 0-219 81-264 174V0H140v-1536h185v585c82-101 189-151 320-151 229 0 346 129 346 387V0H806v-716c-2-153-65-229-217-229" id="W"/><g id="i"><use transform="matrix(0.008463541666666668,0,0,0.008463541666666668,0,0)" xlink:href="#V"/><use transform="matrix(0.008463541666666668,0,0,0.008463541666666668,5.662109375000001,0)" xlink:href="#W"/><use transform="matrix(0.008463541666666668,0,0,0.008463541666666668,15.208984375000004,0)" xlink:href="#S"/></g><path fill="#202124" d="M503-687l240-395h216L605-547 970 0H756L506-405 256 0H41l365-547-354-535h214" id="X"/><g id="j"><use transform="matrix(0.008463541666666668,0,0,0.008463541666666668,0,0)" xlink:href="#V"/><use transform="matrix(0.008463541666666668,0,0,0.008463541666666668,5.662109375000001,0)" xlink:href="#S"/><use transform="matrix(0.008463541666666668,0,0,0.008463541666666668,14.845052083333336,0)" xlink:href="#X"/><use transform="matrix(0.008463541666666668,0,0,0.008463541666666668,23.435546875000004,0)" xlink:href="#V"/></g><path fill="#202124" d="M584 20C278 26 81-227 91-551c10-320 175-545 491-551 308-5 503 247 494 573-9 322-175 543-492 549zm-2-970c-208 0-305 185-305 421 0 216 106 398 307 398 211 0 307-186 307-420 0-214-109-399-309-399" id="Y"/><path fill="#202124" d="M704-1390c-164-38-297 28-288 194v114h231v143H416V0H231v-939H60v-143h171v-111c-12-274 208-416 483-347" id="Z"/><g id="k"><use transform="matrix(0.008463541666666668,0,0,0.008463541666666668,0,0)" xlink:href="#Y"/><use transform="matrix(0.008463541666666668,0,0,0.008463541666666668,9.885416666666668,0)" xlink:href="#Z"/></g><path fill="#202124" d="M561-1102c238-4 403 126 403 351v498c0 99 13 178 38 237V0H808c-11-21-19-59-26-114C696-25 593 20 474 20c-199 0-368-130-365-320 4-251 214-359 490-356h180v-85c-1-135-86-212-229-212-115 0-232 67-233 171H131c20-205 206-316 430-320zM294-326c0 117 90 185 207 185 122 0 239-75 278-162v-222H634c-227 0-340 66-340 199" id="aa"/><path fill="#202124" d="M538-131c121 0 232-49 232-156 0-50-20-88-56-117-73-60-334-92-420-143-92-55-162-110-162-238 0-190 192-317 400-317 223 0 414 129 413 338H759c0-108-110-186-227-186-119 0-215 53-215 159 0 45 18 78 53 101 76 52 331 90 416 139 98 57 169 115 169 251C955-92 760 20 538 20c-176 0-314-68-386-174-38-55-57-115-57-179h185c6 129 116 202 258 202" id="ab"/><path fill="#202124" d="M442-501L326-380V0H141v-1536h185v929c135-169 291-317 436-475h225L566-630 1036 0H819" id="ac"/><g id="l"><use transform="matrix(0.008463541666666668,0,0,0.008463541666666668,0,0)" xlink:href="#V"/><use transform="matrix(0.008463541666666668,0,0,0.008463541666666668,5.662109375000001,0)" xlink:href="#aa"/><use transform="matrix(0.008463541666666668,0,0,0.008463541666666668,15.090494791666668,0)" xlink:href="#ab"/><use transform="matrix(0.008463541666666668,0,0,0.008463541666666668,24.02799479166667,0)" xlink:href="#ac"/></g><path d="M115-194c55 1 70 41 70 98S169 2 115 4C84 4 66-9 55-30l1 105H24l-1-265h31l2 30c10-21 28-34 59-34zm-8 174c40 0 45-34 45-75s-6-73-45-74c-42 0-51 32-51 76 0 43 10 73 51 73" id="ad"/><path d="M101-234c-31-9-42 10-38 44h38v23H63V0H32v-167H5v-23h27c-7-52 17-82 69-68v24" id="ae"/><path d="M96-169c-40 0-48 33-48 73s9 75 48 75c24 0 41-14 43-38l32 2c-6 37-31 61-74 61-59 0-76-41-82-99-10-93 101-131 147-64 4 7 5 14 7 22l-32 3c-4-21-16-35-41-35" id="af"/><path d="M84 4C-5 8 30-112 23-190h32v120c0 31 7 50 39 49 72-2 45-101 50-169h31l1 190h-30c-1-10 1-25-2-33-11 22-28 36-60 37" id="ag"/><g id="n"><use transform="matrix(0.05,0,0,0.05,0,0)" xlink:href="#ad"/><use transform="matrix(0.05,0,0,0.05,10,0)" xlink:href="#O"/><use transform="matrix(0.05,0,0,0.05,20,0)" xlink:href="#N"/><use transform="matrix(0.05,0,0,0.05,34.95,0)" xlink:href="#O"/><use transform="matrix(0.05,0,0,0.05,44.95,0)" xlink:href="#ae"/><use transform="matrix(0.05,0,0,0.05,49.95,0)" xlink:href="#O"/><use transform="matrix(0.05,0,0,0.05,59.95,0)" xlink:href="#af"/><use transform="matrix(0.05,0,0,0.05,68.95,0)" xlink:href="#ag"/><use transform="matrix(0.05,0,0,0.05,78.95,0)" xlink:href="#J"/></g><path d="M114-163C36-179 61-72 57 0H25l-1-190h30c1 12-1 29 2 39 6-27 23-49 58-41v29" id="ah"/><g id="o"><use transform="matrix(0.05,0,0,0.05,0,0)" xlink:href="#I"/><use transform="matrix(0.05,0,0,0.05,5,0)" xlink:href="#R"/><use transform="matrix(0.05,0,0,0.05,8.95,0)" xlink:href="#N"/><use transform="matrix(0.05,0,0,0.05,23.9,0)" xlink:href="#M"/><use transform="matrix(0.05,0,0,0.05,33.9,0)" xlink:href="#ah"/></g><g id="p"><use transform="matrix(0.05,0,0,0.05,0,0)" xlink:href="#G"/><use transform="matrix(0.05,0,0,0.05,10,0)" xlink:href="#M"/><use transform="matrix(0.05,0,0,0.05,20,0)" xlink:href="#Q"/><use transform="matrix(0.05,0,0,0.05,23.95,0)" xlink:href="#M"/><use transform="matrix(0.05,0,0,0.05,33.95,0)" xlink:href="#I"/><use transform="matrix(0.05,0,0,0.05,38.95,0)" xlink:href="#M"/></g><g id="q"><use transform="matrix(0.05,0,0,0.05,0,0)" xlink:href="#H"/><use transform="matrix(0.05,0,0,0.05,10,0)" xlink:href="#Q"/><use transform="matrix(0.05,0,0,0.05,13.949999999999998,0)" xlink:href="#Q"/></g></defs></g></svg>